<svg xmlns="http://www.w3.org/2000/svg" viewBox="0 0 240 280" width="240" height="280">
  <defs>
    <linearGradient id="iconBg" x1="0%" y1="0%" x2="100%" y2="100%">
      <stop offset="0%" stop-color="#1E2D42"/>
      <stop offset="100%" stop-color="#111827"/>
    </linearGradient>
    <linearGradient id="arrowGrad" x1="0%" y1="0%" x2="100%" y2="0%">
      <stop offset="0%" stop-color="#3B82F6"/>
      <stop offset="100%" stop-color="#60A5FA"/>
    </linearGradient>
    <filter id="arrowGlow" x="-40%" y="-40%" width="180%" height="180%">
      <feGaussianBlur in="SourceGraphic" stdDeviation="2" result="blur"/>
      <feMerge>
        <feMergeNode in="blur"/>
        <feMergeNode in="SourceGraphic"/>
      </feMerge>
    </filter>
  </defs>
  <rect x="20" y="10" width="200" height="200" rx="36" fill="url(#iconBg)"/>
  <rect x="20" y="10" width="200" height="200" rx="36" fill="none" stroke="white" stroke-width="1" opacity="0.07"/>
  <rect x="62" y="42" width="80" height="98" rx="9" fill="#1a2840"/>
  <rect x="62" y="42" width="80" height="98" rx="9" fill="none" stroke="#2E4568" stroke-width="1.8"/>
  <polygon points="118,42 142,66 118,66" fill="#0f1c2e"/>
  <polyline points="118,42 118,66 142,66" fill="none" stroke="#2E4568" stroke-width="1.8" stroke-linejoin="round"/>
  <rect x="74" y="78" width="26" height="3" rx="1.5" fill="#3B82F6" opacity="0.8"/>
  <rect x="74" y="87" width="38" height="3" rx="1.5" fill="#4B5A6E" opacity="0.7"/>
  <rect x="74" y="96" width="32" height="3" rx="1.5" fill="#4B5A6E" opacity="0.55"/>
  <rect x="74" y="105" width="22" height="3" rx="1.5" fill="#4B5A6E" opacity="0.4"/>
  <rect x="74" y="118" width="34" height="11" rx="5.5" fill="#3B82F6" opacity="0.18"/>
  <rect x="74" y="118" width="34" height="11" rx="5.5" fill="none" stroke="#3B82F6" stroke-width="1.2" opacity="0.5"/>
  <text x="91" y="127" font-family="'Courier New', monospace" font-size="6.5" letter-spacing="0.8" fill="#60A5FA" text-anchor="middle" opacity="0.9">SENT</text>
  <line x1="148" y1="110" x2="178" y2="110" stroke="url(#arrowGrad)" stroke-width="3" stroke-linecap="round" filter="url(#arrowGlow)"/>
  <polyline points="169,101 179,110 169,119" fill="none" stroke="url(#arrowGrad)" stroke-width="3" stroke-linecap="round" stroke-linejoin="round" filter="url(#arrowGlow)"/>
  <circle cx="179" cy="110" r="9" fill="#3B82F6" opacity="0.08"/>
  <circle cx="179" cy="110" r="5.5" fill="#3B82F6" opacity="0.12"/>
  <circle cx="179" cy="110" r="3" fill="#60A5FA" opacity="0.95"/>
  <text x="120" y="238" font-family="Georgia, 'Times New Roman', serif" font-weight="700" font-size="30" letter-spacing="-0.5" fill="#EDF2F7" text-anchor="middle">Quote</text>
  <text x="120" y="262" font-family="'Courier New', monospace" font-size="11" letter-spacing="3.5" fill="#4A7FA8" text-anchor="middle">FOLLOW-UP OS</text>
</svg>
